# xmcd
#
# Track frame offsets:
#	150
#	22906
#	40363
#	63123
#	80025
#	101812
#	120739
#	140345
#	161788
#	178083
#	198264
#
# Disc length: 2959 seconds
#
# Revision: 0
# Processed by: cddbd v1.5.2PL0 Copyright (c) Steve Scherf et al.
# Submitted via: EasyCDDAExtractor 11.5.0.1
#
DISCID=940b8d0b
DTITLE=Beata Bednarz - Zwatpienie-zdzwienie
DYEAR=2008
DGENRE=Other
TTITLE0=Wciaz mnie zadziwiasz
TTITLE1=Jak po nocy jasny swit
TTITLE2=Dzien po dniu
TTITLE3=Jestesmy Panie
TTITLE4=Dotknij mnie
TTITLE5=Nie szczyce sie
TTITLE6=Daj czyste serce Panie
TTITLE7=W cieniui Twoich rak
TTITLE8=Cudowna Boza
TTITLE9=Gdy na ten swiat
TTITLE10=Wszystko Tobie
EXTD=
EXTT0=
EXTT1=
EXTT2=
EXTT3=
EXTT4=
EXTT5=
EXTT6=
EXTT7=
EXTT8=
EXTT9=
EXTT10=
PLAYORDER=
